<mxfile host="app.diagrams.net" agent="Mozilla/5.0 (Macintosh; Intel Mac OS X 10_15_7) AppleWebKit/537.36 (KHTML, like Gecko) Chrome/131.0.0.0 Safari/537.36 Edg/131.0.0.0" version="25.0.1" pages="2">
  <diagram name="correct" id="d6JSe39yS_KJCqo9EGPW">
    <mxGraphModel dx="1050" dy="605" grid="0" gridSize="10" guides="1" tooltips="1" connect="1" arrows="1" fold="1" page="1" pageScale="1" pageWidth="850" pageHeight="1100" math="0" shadow="0">
      <root>
        <mxCell id="0" />
        <mxCell id="1" parent="0" />
        <mxCell id="PR4BEnE2gha1J32wWCrJ-7" style="rounded=0;orthogonalLoop=1;jettySize=auto;html=1;exitX=0.25;exitY=0;exitDx=0;exitDy=0;entryX=0.5;entryY=1;entryDx=0;entryDy=0;endArrow=none;endFill=0;fontSize=13;" edge="1" parent="1" source="PR4BEnE2gha1J32wWCrJ-1" target="PR4BEnE2gha1J32wWCrJ-6">
          <mxGeometry relative="1" as="geometry" />
        </mxCell>
        <mxCell id="PR4BEnE2gha1J32wWCrJ-9" style="edgeStyle=none;shape=connector;rounded=0;orthogonalLoop=1;jettySize=auto;html=1;exitX=0.5;exitY=0;exitDx=0;exitDy=0;entryX=0.5;entryY=1;entryDx=0;entryDy=0;strokeColor=default;align=center;verticalAlign=middle;fontFamily=Helvetica;fontSize=13;fontColor=default;labelBackgroundColor=default;endArrow=none;endFill=0;" edge="1" parent="1" source="PR4BEnE2gha1J32wWCrJ-1" target="PR4BEnE2gha1J32wWCrJ-8">
          <mxGeometry relative="1" as="geometry" />
        </mxCell>
        <mxCell id="PR4BEnE2gha1J32wWCrJ-1" value="Book" style="whiteSpace=wrap;html=1;align=center;fontSize=13;" vertex="1" parent="1">
          <mxGeometry x="220" y="210" width="100" height="40" as="geometry" />
        </mxCell>
        <mxCell id="PR4BEnE2gha1J32wWCrJ-22" style="edgeStyle=none;shape=connector;rounded=0;orthogonalLoop=1;jettySize=auto;html=1;exitX=1;exitY=0.5;exitDx=0;exitDy=0;entryX=0;entryY=0.5;entryDx=0;entryDy=0;strokeColor=default;align=center;verticalAlign=middle;fontFamily=Helvetica;fontSize=13;fontColor=default;labelBackgroundColor=default;endArrow=none;endFill=0;" edge="1" parent="1" source="PR4BEnE2gha1J32wWCrJ-2" target="PR4BEnE2gha1J32wWCrJ-21">
          <mxGeometry relative="1" as="geometry" />
        </mxCell>
        <mxCell id="PR4BEnE2gha1J32wWCrJ-24" style="edgeStyle=none;shape=connector;rounded=0;orthogonalLoop=1;jettySize=auto;html=1;exitX=1;exitY=0.5;exitDx=0;exitDy=0;entryX=0;entryY=0.5;entryDx=0;entryDy=0;strokeColor=default;align=center;verticalAlign=middle;fontFamily=Helvetica;fontSize=13;fontColor=default;labelBackgroundColor=default;endArrow=none;endFill=0;" edge="1" parent="1" source="PR4BEnE2gha1J32wWCrJ-2" target="PR4BEnE2gha1J32wWCrJ-23">
          <mxGeometry relative="1" as="geometry" />
        </mxCell>
        <mxCell id="PR4BEnE2gha1J32wWCrJ-26" style="edgeStyle=none;shape=connector;rounded=0;orthogonalLoop=1;jettySize=auto;html=1;exitX=1;exitY=0.5;exitDx=0;exitDy=0;entryX=0;entryY=0.5;entryDx=0;entryDy=0;strokeColor=default;align=center;verticalAlign=middle;fontFamily=Helvetica;fontSize=13;fontColor=default;labelBackgroundColor=default;endArrow=none;endFill=0;" edge="1" parent="1" source="PR4BEnE2gha1J32wWCrJ-2" target="PR4BEnE2gha1J32wWCrJ-25">
          <mxGeometry relative="1" as="geometry" />
        </mxCell>
        <mxCell id="PR4BEnE2gha1J32wWCrJ-31" style="edgeStyle=orthogonalEdgeStyle;shape=connector;rounded=0;orthogonalLoop=1;jettySize=auto;html=1;exitX=0.5;exitY=1;exitDx=0;exitDy=0;entryX=1;entryY=0.5;entryDx=0;entryDy=0;strokeColor=default;align=center;verticalAlign=middle;fontFamily=Helvetica;fontSize=13;fontColor=default;labelBackgroundColor=default;endArrow=none;endFill=0;startArrow=ERmandOne;startFill=0;" edge="1" parent="1" source="PR4BEnE2gha1J32wWCrJ-2" target="PR4BEnE2gha1J32wWCrJ-27">
          <mxGeometry relative="1" as="geometry" />
        </mxCell>
        <mxCell id="PR4BEnE2gha1J32wWCrJ-2" value="Book_Copy" style="whiteSpace=wrap;html=1;align=center;fontSize=13;" vertex="1" parent="1">
          <mxGeometry x="470" y="210.5" width="100" height="40" as="geometry" />
        </mxCell>
        <mxCell id="PR4BEnE2gha1J32wWCrJ-13" style="edgeStyle=none;shape=connector;rounded=0;orthogonalLoop=1;jettySize=auto;html=1;exitX=0;exitY=0.5;exitDx=0;exitDy=0;entryX=1;entryY=0.5;entryDx=0;entryDy=0;strokeColor=default;align=center;verticalAlign=middle;fontFamily=Helvetica;fontSize=13;fontColor=default;labelBackgroundColor=default;endArrow=none;endFill=0;" edge="1" parent="1" source="PR4BEnE2gha1J32wWCrJ-3" target="PR4BEnE2gha1J32wWCrJ-12">
          <mxGeometry relative="1" as="geometry" />
        </mxCell>
        <mxCell id="PR4BEnE2gha1J32wWCrJ-15" style="edgeStyle=none;shape=connector;rounded=0;orthogonalLoop=1;jettySize=auto;html=1;exitX=0;exitY=0.5;exitDx=0;exitDy=0;entryX=1;entryY=0.5;entryDx=0;entryDy=0;strokeColor=default;align=center;verticalAlign=middle;fontFamily=Helvetica;fontSize=13;fontColor=default;labelBackgroundColor=default;endArrow=none;endFill=0;" edge="1" parent="1" source="PR4BEnE2gha1J32wWCrJ-3" target="PR4BEnE2gha1J32wWCrJ-14">
          <mxGeometry relative="1" as="geometry" />
        </mxCell>
        <mxCell id="PR4BEnE2gha1J32wWCrJ-17" style="edgeStyle=none;shape=connector;rounded=0;orthogonalLoop=1;jettySize=auto;html=1;exitX=0;exitY=0.5;exitDx=0;exitDy=0;entryX=1;entryY=0.5;entryDx=0;entryDy=0;strokeColor=default;align=center;verticalAlign=middle;fontFamily=Helvetica;fontSize=13;fontColor=default;labelBackgroundColor=default;endArrow=none;endFill=0;" edge="1" parent="1" source="PR4BEnE2gha1J32wWCrJ-3" target="PR4BEnE2gha1J32wWCrJ-16">
          <mxGeometry relative="1" as="geometry" />
        </mxCell>
        <mxCell id="PR4BEnE2gha1J32wWCrJ-28" style="edgeStyle=none;shape=connector;rounded=0;orthogonalLoop=1;jettySize=auto;html=1;exitX=0.5;exitY=0;exitDx=0;exitDy=0;strokeColor=default;align=center;verticalAlign=middle;fontFamily=Helvetica;fontSize=13;fontColor=default;labelBackgroundColor=default;endArrow=none;endFill=0;startArrow=ERzeroToMany;startFill=0;" edge="1" parent="1" source="PR4BEnE2gha1J32wWCrJ-3" target="PR4BEnE2gha1J32wWCrJ-27">
          <mxGeometry relative="1" as="geometry">
            <mxPoint x="270" y="348" as="targetPoint" />
          </mxGeometry>
        </mxCell>
        <mxCell id="PR4BEnE2gha1J32wWCrJ-3" value="Borrower" style="whiteSpace=wrap;html=1;align=center;fontSize=13;" vertex="1" parent="1">
          <mxGeometry x="220" y="398" width="100" height="40" as="geometry" />
        </mxCell>
        <mxCell id="PR4BEnE2gha1J32wWCrJ-4" value="ISBN" style="ellipse;whiteSpace=wrap;html=1;align=center;fontStyle=4;fontSize=13;" vertex="1" parent="1">
          <mxGeometry x="140" y="190" width="60" height="20" as="geometry" />
        </mxCell>
        <mxCell id="PR4BEnE2gha1J32wWCrJ-5" style="rounded=0;orthogonalLoop=1;jettySize=auto;html=1;exitX=0;exitY=0.5;exitDx=0;exitDy=0;entryX=0.44;entryY=0.96;entryDx=0;entryDy=0;entryPerimeter=0;endArrow=none;endFill=0;fontSize=13;" edge="1" parent="1" source="PR4BEnE2gha1J32wWCrJ-1" target="PR4BEnE2gha1J32wWCrJ-4">
          <mxGeometry relative="1" as="geometry" />
        </mxCell>
        <mxCell id="PR4BEnE2gha1J32wWCrJ-6" value="title" style="ellipse;whiteSpace=wrap;html=1;align=center;fontSize=13;" vertex="1" parent="1">
          <mxGeometry x="170" y="160" width="50" height="20" as="geometry" />
        </mxCell>
        <mxCell id="PR4BEnE2gha1J32wWCrJ-8" value="edition" style="ellipse;whiteSpace=wrap;html=1;align=center;fontSize=13;" vertex="1" parent="1">
          <mxGeometry x="230" y="160" width="50" height="20" as="geometry" />
        </mxCell>
        <mxCell id="PR4BEnE2gha1J32wWCrJ-10" value="year_of_publ" style="ellipse;whiteSpace=wrap;html=1;align=center;fontSize=13;" vertex="1" parent="1">
          <mxGeometry x="290" y="160" width="90" height="20" as="geometry" />
        </mxCell>
        <mxCell id="PR4BEnE2gha1J32wWCrJ-11" style="edgeStyle=none;shape=connector;rounded=0;orthogonalLoop=1;jettySize=auto;html=1;exitX=0.75;exitY=0;exitDx=0;exitDy=0;entryX=0.433;entryY=1.07;entryDx=0;entryDy=0;entryPerimeter=0;strokeColor=default;align=center;verticalAlign=middle;fontFamily=Helvetica;fontSize=13;fontColor=default;labelBackgroundColor=default;endArrow=none;endFill=0;" edge="1" parent="1" source="PR4BEnE2gha1J32wWCrJ-1" target="PR4BEnE2gha1J32wWCrJ-10">
          <mxGeometry relative="1" as="geometry" />
        </mxCell>
        <mxCell id="PR4BEnE2gha1J32wWCrJ-12" value="&lt;u&gt;number&lt;/u&gt;" style="ellipse;whiteSpace=wrap;html=1;align=center;fontFamily=Helvetica;fontSize=13;fontColor=default;labelBackgroundColor=default;" vertex="1" parent="1">
          <mxGeometry x="109" y="438" width="81" height="20" as="geometry" />
        </mxCell>
        <mxCell id="PR4BEnE2gha1J32wWCrJ-14" value="name" style="ellipse;whiteSpace=wrap;html=1;align=center;fontFamily=Helvetica;fontSize=13;fontColor=default;labelBackgroundColor=default;" vertex="1" parent="1">
          <mxGeometry x="130" y="408" width="60" height="20" as="geometry" />
        </mxCell>
        <mxCell id="PR4BEnE2gha1J32wWCrJ-16" value="address" style="ellipse;whiteSpace=wrap;html=1;align=center;fontFamily=Helvetica;fontSize=13;fontColor=default;labelBackgroundColor=default;" vertex="1" parent="1">
          <mxGeometry x="115" y="378" width="75" height="20" as="geometry" />
        </mxCell>
        <mxCell id="PR4BEnE2gha1J32wWCrJ-19" style="edgeStyle=none;shape=connector;rounded=0;orthogonalLoop=1;jettySize=auto;html=1;exitX=1;exitY=0.5;exitDx=0;exitDy=0;entryX=0;entryY=0.5;entryDx=0;entryDy=0;strokeColor=default;align=center;verticalAlign=middle;fontFamily=Helvetica;fontSize=13;fontColor=default;labelBackgroundColor=default;endArrow=ERoneToMany;endFill=0;" edge="1" parent="1" source="PR4BEnE2gha1J32wWCrJ-18" target="PR4BEnE2gha1J32wWCrJ-2">
          <mxGeometry relative="1" as="geometry" />
        </mxCell>
        <mxCell id="PR4BEnE2gha1J32wWCrJ-20" style="edgeStyle=none;shape=connector;rounded=0;orthogonalLoop=1;jettySize=auto;html=1;exitX=0;exitY=0.5;exitDx=0;exitDy=0;entryX=1;entryY=0.5;entryDx=0;entryDy=0;strokeColor=default;align=center;verticalAlign=middle;fontFamily=Helvetica;fontSize=13;fontColor=default;labelBackgroundColor=default;endArrow=ERmandOne;endFill=0;" edge="1" parent="1" source="PR4BEnE2gha1J32wWCrJ-18" target="PR4BEnE2gha1J32wWCrJ-1">
          <mxGeometry relative="1" as="geometry" />
        </mxCell>
        <mxCell id="PR4BEnE2gha1J32wWCrJ-18" value="has" style="shape=rhombus;perimeter=rhombusPerimeter;whiteSpace=wrap;html=1;align=center;fontFamily=Helvetica;fontSize=13;fontColor=default;labelBackgroundColor=default;" vertex="1" parent="1">
          <mxGeometry x="355" y="212.5" width="70" height="35" as="geometry" />
        </mxCell>
        <mxCell id="PR4BEnE2gha1J32wWCrJ-21" value="number" style="ellipse;whiteSpace=wrap;html=1;align=center;fontStyle=4;fontSize=13;" vertex="1" parent="1">
          <mxGeometry x="600" y="193" width="90" height="20" as="geometry" />
        </mxCell>
        <mxCell id="PR4BEnE2gha1J32wWCrJ-23" value="available_for_loan" style="ellipse;whiteSpace=wrap;html=1;align=center;fontSize=13;" vertex="1" parent="1">
          <mxGeometry x="600" y="228" width="114" height="28.5" as="geometry" />
        </mxCell>
        <mxCell id="PR4BEnE2gha1J32wWCrJ-25" value="loan_period" style="ellipse;whiteSpace=wrap;html=1;align=center;fontSize=13;" vertex="1" parent="1">
          <mxGeometry x="600" y="270.5" width="100" height="22.5" as="geometry" />
        </mxCell>
        <mxCell id="PR4BEnE2gha1J32wWCrJ-29" style="edgeStyle=none;shape=connector;rounded=0;orthogonalLoop=1;jettySize=auto;html=1;exitX=0.5;exitY=0;exitDx=0;exitDy=0;entryX=0.5;entryY=1;entryDx=0;entryDy=0;strokeColor=default;align=center;verticalAlign=middle;fontFamily=Helvetica;fontSize=13;fontColor=default;labelBackgroundColor=default;endArrow=ERoneToMany;endFill=0;" edge="1" parent="1" source="PR4BEnE2gha1J32wWCrJ-27" target="PR4BEnE2gha1J32wWCrJ-1">
          <mxGeometry relative="1" as="geometry">
            <Array as="points">
              <mxPoint x="270" y="280" />
            </Array>
          </mxGeometry>
        </mxCell>
        <mxCell id="PR4BEnE2gha1J32wWCrJ-33" style="edgeStyle=none;shape=connector;rounded=0;orthogonalLoop=1;jettySize=auto;html=1;exitX=0;exitY=0;exitDx=0;exitDy=0;entryX=1;entryY=1;entryDx=0;entryDy=0;strokeColor=default;align=center;verticalAlign=middle;fontFamily=Helvetica;fontSize=13;fontColor=default;labelBackgroundColor=default;endArrow=none;endFill=0;" edge="1" parent="1" source="PR4BEnE2gha1J32wWCrJ-27" target="PR4BEnE2gha1J32wWCrJ-32">
          <mxGeometry relative="1" as="geometry" />
        </mxCell>
        <mxCell id="PR4BEnE2gha1J32wWCrJ-35" style="edgeStyle=none;shape=connector;rounded=0;orthogonalLoop=1;jettySize=auto;html=1;exitX=0;exitY=0.5;exitDx=0;exitDy=0;entryX=1;entryY=0.5;entryDx=0;entryDy=0;strokeColor=default;align=center;verticalAlign=middle;fontFamily=Helvetica;fontSize=13;fontColor=default;labelBackgroundColor=default;endArrow=none;endFill=0;" edge="1" parent="1" source="PR4BEnE2gha1J32wWCrJ-27" target="PR4BEnE2gha1J32wWCrJ-34">
          <mxGeometry relative="1" as="geometry" />
        </mxCell>
        <mxCell id="PR4BEnE2gha1J32wWCrJ-37" style="edgeStyle=none;shape=connector;rounded=0;orthogonalLoop=1;jettySize=auto;html=1;exitX=0;exitY=1;exitDx=0;exitDy=0;entryX=1;entryY=0;entryDx=0;entryDy=0;strokeColor=default;align=center;verticalAlign=middle;fontFamily=Helvetica;fontSize=13;fontColor=default;labelBackgroundColor=default;endArrow=none;endFill=0;" edge="1" parent="1" source="PR4BEnE2gha1J32wWCrJ-27" target="PR4BEnE2gha1J32wWCrJ-36">
          <mxGeometry relative="1" as="geometry" />
        </mxCell>
        <mxCell id="PR4BEnE2gha1J32wWCrJ-27" value="loans" style="shape=rhombus;perimeter=rhombusPerimeter;whiteSpace=wrap;html=1;align=center;fontFamily=Helvetica;fontSize=13;fontColor=default;labelBackgroundColor=default;" vertex="1" parent="1">
          <mxGeometry x="235" y="298" width="70" height="35" as="geometry" />
        </mxCell>
        <mxCell id="PR4BEnE2gha1J32wWCrJ-32" value="date_out" style="ellipse;whiteSpace=wrap;html=1;align=center;fontFamily=Helvetica;fontSize=13;fontColor=default;labelBackgroundColor=default;" vertex="1" parent="1">
          <mxGeometry x="157" y="274" width="73" height="24" as="geometry" />
        </mxCell>
        <mxCell id="PR4BEnE2gha1J32wWCrJ-34" value="date_returned" style="ellipse;whiteSpace=wrap;html=1;align=center;fontFamily=Helvetica;fontSize=13;fontColor=default;labelBackgroundColor=default;" vertex="1" parent="1">
          <mxGeometry x="87" y="301" width="103" height="27" as="geometry" />
        </mxCell>
        <mxCell id="PR4BEnE2gha1J32wWCrJ-36" value="load_number" style="ellipse;whiteSpace=wrap;html=1;align=center;fontFamily=Helvetica;fontSize=13;fontColor=default;labelBackgroundColor=default;" vertex="1" parent="1">
          <mxGeometry x="123" y="333" width="127" height="22.5" as="geometry" />
        </mxCell>
      </root>
    </mxGraphModel>
  </diagram>
  <diagram name="Copy of correct" id="OKeKB_D3by4xree8Dmnl">
    <mxGraphModel dx="1050" dy="605" grid="1" gridSize="10" guides="1" tooltips="1" connect="1" arrows="1" fold="1" page="1" pageScale="1" pageWidth="850" pageHeight="1100" math="0" shadow="0">
      <root>
        <mxCell id="JgI631f_zzQ1InF0wkNr-0" />
        <mxCell id="JgI631f_zzQ1InF0wkNr-1" parent="JgI631f_zzQ1InF0wkNr-0" />
        <mxCell id="JgI631f_zzQ1InF0wkNr-2" style="rounded=0;orthogonalLoop=1;jettySize=auto;html=1;exitX=0.25;exitY=0;exitDx=0;exitDy=0;entryX=0.5;entryY=1;entryDx=0;entryDy=0;endArrow=none;endFill=0;" edge="1" parent="JgI631f_zzQ1InF0wkNr-1" source="JgI631f_zzQ1InF0wkNr-4" target="JgI631f_zzQ1InF0wkNr-17">
          <mxGeometry relative="1" as="geometry" />
        </mxCell>
        <mxCell id="JgI631f_zzQ1InF0wkNr-3" style="edgeStyle=none;shape=connector;rounded=0;orthogonalLoop=1;jettySize=auto;html=1;exitX=0.5;exitY=0;exitDx=0;exitDy=0;entryX=0.5;entryY=1;entryDx=0;entryDy=0;strokeColor=default;align=center;verticalAlign=middle;fontFamily=Helvetica;fontSize=11;fontColor=default;labelBackgroundColor=default;endArrow=none;endFill=0;" edge="1" parent="JgI631f_zzQ1InF0wkNr-1" source="JgI631f_zzQ1InF0wkNr-4" target="JgI631f_zzQ1InF0wkNr-18">
          <mxGeometry relative="1" as="geometry" />
        </mxCell>
        <mxCell id="JgI631f_zzQ1InF0wkNr-4" value="Book" style="whiteSpace=wrap;html=1;align=center;" vertex="1" parent="JgI631f_zzQ1InF0wkNr-1">
          <mxGeometry x="220" y="210" width="100" height="40" as="geometry" />
        </mxCell>
        <mxCell id="JgI631f_zzQ1InF0wkNr-5" style="edgeStyle=none;shape=connector;rounded=0;orthogonalLoop=1;jettySize=auto;html=1;exitX=1;exitY=0.5;exitDx=0;exitDy=0;entryX=0;entryY=0.5;entryDx=0;entryDy=0;strokeColor=default;align=center;verticalAlign=middle;fontFamily=Helvetica;fontSize=11;fontColor=default;labelBackgroundColor=default;endArrow=none;endFill=0;" edge="1" parent="JgI631f_zzQ1InF0wkNr-1" source="JgI631f_zzQ1InF0wkNr-9" target="JgI631f_zzQ1InF0wkNr-27">
          <mxGeometry relative="1" as="geometry" />
        </mxCell>
        <mxCell id="JgI631f_zzQ1InF0wkNr-6" style="edgeStyle=none;shape=connector;rounded=0;orthogonalLoop=1;jettySize=auto;html=1;exitX=1;exitY=0.5;exitDx=0;exitDy=0;entryX=0;entryY=0.5;entryDx=0;entryDy=0;strokeColor=default;align=center;verticalAlign=middle;fontFamily=Helvetica;fontSize=11;fontColor=default;labelBackgroundColor=default;endArrow=none;endFill=0;" edge="1" parent="JgI631f_zzQ1InF0wkNr-1" source="JgI631f_zzQ1InF0wkNr-9" target="JgI631f_zzQ1InF0wkNr-28">
          <mxGeometry relative="1" as="geometry" />
        </mxCell>
        <mxCell id="JgI631f_zzQ1InF0wkNr-7" style="edgeStyle=none;shape=connector;rounded=0;orthogonalLoop=1;jettySize=auto;html=1;exitX=1;exitY=0.5;exitDx=0;exitDy=0;entryX=0;entryY=0.5;entryDx=0;entryDy=0;strokeColor=default;align=center;verticalAlign=middle;fontFamily=Helvetica;fontSize=11;fontColor=default;labelBackgroundColor=default;endArrow=none;endFill=0;" edge="1" parent="JgI631f_zzQ1InF0wkNr-1" source="JgI631f_zzQ1InF0wkNr-9" target="JgI631f_zzQ1InF0wkNr-29">
          <mxGeometry relative="1" as="geometry" />
        </mxCell>
        <mxCell id="JgI631f_zzQ1InF0wkNr-8" style="edgeStyle=orthogonalEdgeStyle;shape=connector;rounded=0;orthogonalLoop=1;jettySize=auto;html=1;exitX=0.5;exitY=1;exitDx=0;exitDy=0;entryX=1;entryY=0.5;entryDx=0;entryDy=0;strokeColor=default;align=center;verticalAlign=middle;fontFamily=Helvetica;fontSize=11;fontColor=default;labelBackgroundColor=default;endArrow=none;endFill=0;startArrow=ERmandOne;startFill=0;" edge="1" parent="JgI631f_zzQ1InF0wkNr-1" source="JgI631f_zzQ1InF0wkNr-9" target="JgI631f_zzQ1InF0wkNr-34">
          <mxGeometry relative="1" as="geometry" />
        </mxCell>
        <mxCell id="JgI631f_zzQ1InF0wkNr-9" value="Book_Copy" style="whiteSpace=wrap;html=1;align=center;" vertex="1" parent="JgI631f_zzQ1InF0wkNr-1">
          <mxGeometry x="490" y="210" width="100" height="40" as="geometry" />
        </mxCell>
        <mxCell id="JgI631f_zzQ1InF0wkNr-10" style="edgeStyle=none;shape=connector;rounded=0;orthogonalLoop=1;jettySize=auto;html=1;exitX=0;exitY=0.5;exitDx=0;exitDy=0;entryX=1;entryY=0.5;entryDx=0;entryDy=0;strokeColor=default;align=center;verticalAlign=middle;fontFamily=Helvetica;fontSize=11;fontColor=default;labelBackgroundColor=default;endArrow=none;endFill=0;" edge="1" parent="JgI631f_zzQ1InF0wkNr-1" source="JgI631f_zzQ1InF0wkNr-14" target="JgI631f_zzQ1InF0wkNr-21">
          <mxGeometry relative="1" as="geometry" />
        </mxCell>
        <mxCell id="JgI631f_zzQ1InF0wkNr-11" style="edgeStyle=none;shape=connector;rounded=0;orthogonalLoop=1;jettySize=auto;html=1;exitX=0;exitY=0.5;exitDx=0;exitDy=0;entryX=1;entryY=0.5;entryDx=0;entryDy=0;strokeColor=default;align=center;verticalAlign=middle;fontFamily=Helvetica;fontSize=11;fontColor=default;labelBackgroundColor=default;endArrow=none;endFill=0;" edge="1" parent="JgI631f_zzQ1InF0wkNr-1" source="JgI631f_zzQ1InF0wkNr-14" target="JgI631f_zzQ1InF0wkNr-22">
          <mxGeometry relative="1" as="geometry" />
        </mxCell>
        <mxCell id="JgI631f_zzQ1InF0wkNr-12" style="edgeStyle=none;shape=connector;rounded=0;orthogonalLoop=1;jettySize=auto;html=1;exitX=0;exitY=0.5;exitDx=0;exitDy=0;entryX=1;entryY=0.5;entryDx=0;entryDy=0;strokeColor=default;align=center;verticalAlign=middle;fontFamily=Helvetica;fontSize=11;fontColor=default;labelBackgroundColor=default;endArrow=none;endFill=0;" edge="1" parent="JgI631f_zzQ1InF0wkNr-1" source="JgI631f_zzQ1InF0wkNr-14" target="JgI631f_zzQ1InF0wkNr-23">
          <mxGeometry relative="1" as="geometry" />
        </mxCell>
        <mxCell id="JgI631f_zzQ1InF0wkNr-13" style="edgeStyle=none;shape=connector;rounded=0;orthogonalLoop=1;jettySize=auto;html=1;exitX=0.5;exitY=0;exitDx=0;exitDy=0;strokeColor=default;align=center;verticalAlign=middle;fontFamily=Helvetica;fontSize=11;fontColor=default;labelBackgroundColor=default;endArrow=none;endFill=0;startArrow=ERzeroToMany;startFill=0;" edge="1" parent="JgI631f_zzQ1InF0wkNr-1" source="JgI631f_zzQ1InF0wkNr-14" target="JgI631f_zzQ1InF0wkNr-34">
          <mxGeometry relative="1" as="geometry">
            <mxPoint x="270" y="380" as="targetPoint" />
          </mxGeometry>
        </mxCell>
        <mxCell id="JgI631f_zzQ1InF0wkNr-14" value="Borrower" style="whiteSpace=wrap;html=1;align=center;" vertex="1" parent="JgI631f_zzQ1InF0wkNr-1">
          <mxGeometry x="220" y="430" width="100" height="40" as="geometry" />
        </mxCell>
        <mxCell id="JgI631f_zzQ1InF0wkNr-15" value="ISBN" style="ellipse;whiteSpace=wrap;html=1;align=center;fontStyle=4" vertex="1" parent="JgI631f_zzQ1InF0wkNr-1">
          <mxGeometry x="140" y="190" width="60" height="20" as="geometry" />
        </mxCell>
        <mxCell id="JgI631f_zzQ1InF0wkNr-16" style="rounded=0;orthogonalLoop=1;jettySize=auto;html=1;exitX=0;exitY=0.5;exitDx=0;exitDy=0;entryX=0.44;entryY=0.96;entryDx=0;entryDy=0;entryPerimeter=0;endArrow=none;endFill=0;" edge="1" parent="JgI631f_zzQ1InF0wkNr-1" source="JgI631f_zzQ1InF0wkNr-4" target="JgI631f_zzQ1InF0wkNr-15">
          <mxGeometry relative="1" as="geometry" />
        </mxCell>
        <mxCell id="JgI631f_zzQ1InF0wkNr-17" value="title" style="ellipse;whiteSpace=wrap;html=1;align=center;" vertex="1" parent="JgI631f_zzQ1InF0wkNr-1">
          <mxGeometry x="170" y="160" width="50" height="20" as="geometry" />
        </mxCell>
        <mxCell id="JgI631f_zzQ1InF0wkNr-18" value="edition" style="ellipse;whiteSpace=wrap;html=1;align=center;" vertex="1" parent="JgI631f_zzQ1InF0wkNr-1">
          <mxGeometry x="230" y="160" width="50" height="20" as="geometry" />
        </mxCell>
        <mxCell id="JgI631f_zzQ1InF0wkNr-19" value="year_of_publ" style="ellipse;whiteSpace=wrap;html=1;align=center;" vertex="1" parent="JgI631f_zzQ1InF0wkNr-1">
          <mxGeometry x="290" y="160" width="90" height="20" as="geometry" />
        </mxCell>
        <mxCell id="JgI631f_zzQ1InF0wkNr-20" style="edgeStyle=none;shape=connector;rounded=0;orthogonalLoop=1;jettySize=auto;html=1;exitX=0.75;exitY=0;exitDx=0;exitDy=0;entryX=0.433;entryY=1.07;entryDx=0;entryDy=0;entryPerimeter=0;strokeColor=default;align=center;verticalAlign=middle;fontFamily=Helvetica;fontSize=11;fontColor=default;labelBackgroundColor=default;endArrow=none;endFill=0;" edge="1" parent="JgI631f_zzQ1InF0wkNr-1" source="JgI631f_zzQ1InF0wkNr-4" target="JgI631f_zzQ1InF0wkNr-19">
          <mxGeometry relative="1" as="geometry" />
        </mxCell>
        <mxCell id="JgI631f_zzQ1InF0wkNr-21" value="&lt;u&gt;number&lt;/u&gt;" style="ellipse;whiteSpace=wrap;html=1;align=center;fontFamily=Helvetica;fontSize=11;fontColor=default;labelBackgroundColor=default;" vertex="1" parent="JgI631f_zzQ1InF0wkNr-1">
          <mxGeometry x="130" y="470" width="60" height="20" as="geometry" />
        </mxCell>
        <mxCell id="JgI631f_zzQ1InF0wkNr-22" value="name" style="ellipse;whiteSpace=wrap;html=1;align=center;fontFamily=Helvetica;fontSize=11;fontColor=default;labelBackgroundColor=default;" vertex="1" parent="JgI631f_zzQ1InF0wkNr-1">
          <mxGeometry x="130" y="440" width="60" height="20" as="geometry" />
        </mxCell>
        <mxCell id="JgI631f_zzQ1InF0wkNr-23" value="address" style="ellipse;whiteSpace=wrap;html=1;align=center;fontFamily=Helvetica;fontSize=11;fontColor=default;labelBackgroundColor=default;" vertex="1" parent="JgI631f_zzQ1InF0wkNr-1">
          <mxGeometry x="130" y="410" width="60" height="20" as="geometry" />
        </mxCell>
        <mxCell id="JgI631f_zzQ1InF0wkNr-24" style="edgeStyle=none;shape=connector;rounded=0;orthogonalLoop=1;jettySize=auto;html=1;exitX=1;exitY=0.5;exitDx=0;exitDy=0;entryX=0;entryY=0.5;entryDx=0;entryDy=0;strokeColor=default;align=center;verticalAlign=middle;fontFamily=Helvetica;fontSize=11;fontColor=default;labelBackgroundColor=default;endArrow=ERoneToMany;endFill=0;" edge="1" parent="JgI631f_zzQ1InF0wkNr-1" source="JgI631f_zzQ1InF0wkNr-26" target="JgI631f_zzQ1InF0wkNr-9">
          <mxGeometry relative="1" as="geometry" />
        </mxCell>
        <mxCell id="JgI631f_zzQ1InF0wkNr-25" style="edgeStyle=none;shape=connector;rounded=0;orthogonalLoop=1;jettySize=auto;html=1;exitX=0;exitY=0.5;exitDx=0;exitDy=0;entryX=1;entryY=0.5;entryDx=0;entryDy=0;strokeColor=default;align=center;verticalAlign=middle;fontFamily=Helvetica;fontSize=11;fontColor=default;labelBackgroundColor=default;endArrow=ERmandOne;endFill=0;" edge="1" parent="JgI631f_zzQ1InF0wkNr-1" source="JgI631f_zzQ1InF0wkNr-26" target="JgI631f_zzQ1InF0wkNr-4">
          <mxGeometry relative="1" as="geometry" />
        </mxCell>
        <mxCell id="JgI631f_zzQ1InF0wkNr-26" value="has" style="shape=rhombus;perimeter=rhombusPerimeter;whiteSpace=wrap;html=1;align=center;fontFamily=Helvetica;fontSize=11;fontColor=default;labelBackgroundColor=default;" vertex="1" parent="JgI631f_zzQ1InF0wkNr-1">
          <mxGeometry x="370" y="212.5" width="70" height="35" as="geometry" />
        </mxCell>
        <mxCell id="JgI631f_zzQ1InF0wkNr-27" value="number" style="ellipse;whiteSpace=wrap;html=1;align=center;fontStyle=4" vertex="1" parent="JgI631f_zzQ1InF0wkNr-1">
          <mxGeometry x="620" y="192.5" width="90" height="20" as="geometry" />
        </mxCell>
        <mxCell id="JgI631f_zzQ1InF0wkNr-28" value="available_for_loan" style="ellipse;whiteSpace=wrap;html=1;align=center;" vertex="1" parent="JgI631f_zzQ1InF0wkNr-1">
          <mxGeometry x="620" y="227.5" width="100" height="22.5" as="geometry" />
        </mxCell>
        <mxCell id="JgI631f_zzQ1InF0wkNr-29" value="loan_period" style="ellipse;whiteSpace=wrap;html=1;align=center;" vertex="1" parent="JgI631f_zzQ1InF0wkNr-1">
          <mxGeometry x="620" y="270" width="100" height="22.5" as="geometry" />
        </mxCell>
        <mxCell id="JgI631f_zzQ1InF0wkNr-31" style="edgeStyle=none;shape=connector;rounded=0;orthogonalLoop=1;jettySize=auto;html=1;exitX=0;exitY=0;exitDx=0;exitDy=0;entryX=1;entryY=1;entryDx=0;entryDy=0;strokeColor=default;align=center;verticalAlign=middle;fontFamily=Helvetica;fontSize=11;fontColor=default;labelBackgroundColor=default;endArrow=none;endFill=0;" edge="1" parent="JgI631f_zzQ1InF0wkNr-1" source="JgI631f_zzQ1InF0wkNr-34" target="JgI631f_zzQ1InF0wkNr-35">
          <mxGeometry relative="1" as="geometry" />
        </mxCell>
        <mxCell id="JgI631f_zzQ1InF0wkNr-32" style="edgeStyle=none;shape=connector;rounded=0;orthogonalLoop=1;jettySize=auto;html=1;exitX=0;exitY=0.5;exitDx=0;exitDy=0;entryX=1;entryY=0.5;entryDx=0;entryDy=0;strokeColor=default;align=center;verticalAlign=middle;fontFamily=Helvetica;fontSize=11;fontColor=default;labelBackgroundColor=default;endArrow=none;endFill=0;" edge="1" parent="JgI631f_zzQ1InF0wkNr-1" source="JgI631f_zzQ1InF0wkNr-34" target="JgI631f_zzQ1InF0wkNr-36">
          <mxGeometry relative="1" as="geometry" />
        </mxCell>
        <mxCell id="JgI631f_zzQ1InF0wkNr-34" value="loans" style="shape=rhombus;perimeter=rhombusPerimeter;whiteSpace=wrap;html=1;align=center;fontFamily=Helvetica;fontSize=11;fontColor=default;labelBackgroundColor=default;" vertex="1" parent="JgI631f_zzQ1InF0wkNr-1">
          <mxGeometry x="235" y="336.25" width="70" height="35" as="geometry" />
        </mxCell>
        <mxCell id="JgI631f_zzQ1InF0wkNr-35" value="date_out" style="ellipse;whiteSpace=wrap;html=1;align=center;fontFamily=Helvetica;fontSize=11;fontColor=default;labelBackgroundColor=default;" vertex="1" parent="JgI631f_zzQ1InF0wkNr-1">
          <mxGeometry x="170" y="310" width="60" height="20" as="geometry" />
        </mxCell>
        <mxCell id="JgI631f_zzQ1InF0wkNr-36" value="date_returned" style="ellipse;whiteSpace=wrap;html=1;align=center;fontFamily=Helvetica;fontSize=11;fontColor=default;labelBackgroundColor=default;" vertex="1" parent="JgI631f_zzQ1InF0wkNr-1">
          <mxGeometry x="100" y="336.25" width="90" height="23.75" as="geometry" />
        </mxCell>
        <mxCell id="halteuuRSHlbiKgwoba5-2" style="edgeStyle=none;shape=connector;rounded=0;orthogonalLoop=1;jettySize=auto;html=1;exitX=1;exitY=0.5;exitDx=0;exitDy=0;strokeColor=default;align=center;verticalAlign=middle;fontFamily=Helvetica;fontSize=11;fontColor=default;labelBackgroundColor=default;endArrow=none;endFill=0;" edge="1" parent="JgI631f_zzQ1InF0wkNr-1" source="halteuuRSHlbiKgwoba5-1" target="JgI631f_zzQ1InF0wkNr-34">
          <mxGeometry relative="1" as="geometry" />
        </mxCell>
        <mxCell id="halteuuRSHlbiKgwoba5-1" value="loan_number" style="ellipse;whiteSpace=wrap;html=1;align=center;fontFamily=Helvetica;fontSize=11;fontColor=default;labelBackgroundColor=default;" vertex="1" parent="JgI631f_zzQ1InF0wkNr-1">
          <mxGeometry x="140" y="371.25" width="90" height="23.75" as="geometry" />
        </mxCell>
      </root>
    </mxGraphModel>
  </diagram>
</mxfile>
